<?xml version="1.0" encoding="utf-8"?>
<!-- Generator: Adobe Illustrator 22.0.1, SVG Export Plug-In . SVG Version: 6.00 Build 0)  -->
<svg version="1.1" id="Layer_1" xmlns="http://www.w3.org/2000/svg" xmlns:xlink="http://www.w3.org/1999/xlink" x="0px" y="0px"
	 viewBox="0 0 241.1 201.8" style="enable-background:new 0 0 241.1 201.8;" xml:space="preserve">
<style type="text/css">
	.st0{opacity:0.89;}
	.st1{fill:#FFFFFF;}
</style>
<g id="Layer_1_1_">
	<g class="st0">
		<path class="st1" d="M184.4,21.9c-9.1-0.8-13.4-1.6-17.7-1.6c-41.3,0-82.7,0.4-124-0.1C29.1,20,26.3,23.9,26.4,32.1
			c0.3,48.8,0.2,97.6,0.1,146.4c0,2.4,1,5-0.3,7c-3,4.4-7.1,8.5-10.8,12.7c-3.8-4-10.4-8-10.8-12.1c-1.3-15.7-0.5-31.5-0.5-47.2
			c0-39.7,0.3-79.5-0.3-119.2C3.7,9.5,8.1,5.7,23.7,5.8c64,0.4,128.1,0.3,192.1,0c15.7-0.1,21.5,3.6,21.5,14.4
			c-0.6,54.3-0.3,108.7-0.3,163c0,15.3-4.7,17.7-25.8,13.1c-47.1-10.2-94-20.6-141.2-30.4c-12.3-2.6-17.9-6.4-17.4-15.8
			c0.9-21.7,0.8-43.3-0.1-65c-0.3-8.4,4.7-12.9,14.8-16.7c33.4-12.8,66.6-25.9,99.8-38.9C171.5,27.8,176.1,25.6,184.4,21.9z
			 M79.4,127.8c5.8-7.2,11.7-11.3,11.2-15.1c-0.3-2.9-8.8-7.6-13.3-7.3c-4.5,0.2-12.2,5.5-12,8.3C65.6,117.6,72.2,121.1,79.4,127.8z
			"/>
	</g>
</g>
</svg>
